<svg xmlns="http://www.w3.org/2000/svg" width="1536" height="1024" viewBox="0 0 1536 1024" role="img" aria-label="Síntesis visual del escenario 3 con ubicaciones interiores pero simetría respecto al centro.">
  <defs>
    <pattern id="grid-7" width="42" height="42" patternUnits="userSpaceOnUse">
      <path d="M42 0H0V42" fill="none" stroke="#1C2A3A" stroke-width="1" opacity="0.06" />
    </pattern>
    <filter id="soft-shadow-7" x="-20%" y="-20%" width="140%" height="140%">
      <feDropShadow dx="0" dy="22" stdDeviation="22" flood-color="#1C2A3A" flood-opacity="0.14" />
    </filter>
  </defs>
  <rect width="1536" height="1024" rx="44" fill="#FFFDF8" />
  <rect x="0" y="0" width="1536" height="1024" fill="url(#grid-7)" />
  <rect x="78" y="70" width="1380" height="884" rx="36" fill="#FFFFFF" stroke="#1C2A3A" stroke-opacity="0.14" stroke-width="3" filter="url(#soft-shadow-7)" />
  <path d="M146 218 C 310 120, 554 136, 748 178 S 1094 258, 1322 166" fill="none" stroke="#C6A75E" stroke-width="12" stroke-linecap="round" opacity="0.24" />
  <circle cx="1284" cy="196" r="86" fill="#C6A75E" opacity="0.1" />
  <text x="142" y="150" font-family="Manrope, Arial, sans-serif" font-size="28" font-weight="900" letter-spacing="4" fill="#6E1F28">SÍNTESIS VISUAL</text>
  <text x="142" y="222" font-family="Manrope, Arial, sans-serif" font-size="48" font-weight="900" fill="#1C2A3A">Mover las empresas hacia el interior no rompe el</text>
<text x="142" y="282" font-family="Manrope, Arial, sans-serif" font-size="48" font-weight="900" fill="#1C2A3A">equilibrio si la simetría se conserva.</text>
  <line x1="142" y1="342" x2="1390" y2="342" stroke="#C6A75E" stroke-width="6" stroke-linecap="round" opacity="0.95" />
  <path d="M185 770 C 370 690, 558 810, 725 740 S 1030 662, 1302 770" fill="none" stroke="#6E1F28" stroke-width="7" stroke-linecap="round" stroke-dasharray="18 18" opacity="0.45" />
  
        <circle cx="155" cy="410" r="12" fill="#1C2A3A" opacity="0.9" />
        <path d="M210 398 C 360 366, 560 452, 760 410" fill="none" stroke="#1C2A3A" stroke-width="6" stroke-linecap="round" opacity="0.75" />
        <text x="825" y="420" font-family="Manrope, Arial, sans-serif" font-size="38" font-weight="800" fill="#1C2A3A">a = 20</text>
      

        <circle cx="173" cy="492" r="12" fill="#6E1F28" opacity="0.9" />
        <path d="M210 480 C 360 448, 560 534, 760 492" fill="none" stroke="#6E1F28" stroke-width="6" stroke-linecap="round" opacity="0.75" />
        <text x="825" y="502" font-family="Manrope, Arial, sans-serif" font-size="38" font-weight="800" fill="#6E1F28">b = 80</text>
      

        <circle cx="155" cy="574" r="12" fill="#C6A75E" opacity="0.9" />
        <path d="M210 562 C 360 530, 560 616, 760 574" fill="none" stroke="#C6A75E" stroke-width="6" stroke-linecap="round" opacity="0.75" />
        <text x="825" y="584" font-family="Manrope, Arial, sans-serif" font-size="38" font-weight="800" fill="#C6A75E">x* = 50</text>
      

        <circle cx="173" cy="656" r="12" fill="#2E2E2E" opacity="0.9" />
        <path d="M210 644 C 360 612, 560 698, 760 656" fill="none" stroke="#2E2E2E" stroke-width="6" stroke-linecap="round" opacity="0.75" />
        <text x="825" y="666" font-family="Manrope, Arial, sans-serif" font-size="38" font-weight="800" fill="#2E2E2E">simetría interior</text>
      

        <circle cx="155" cy="738" r="12" fill="#0B0B0B" opacity="0.9" />
        <path d="M210 726 C 360 694, 560 780, 760 738" fill="none" stroke="#0B0B0B" stroke-width="6" stroke-linecap="round" opacity="0.75" />
        <text x="825" y="748" font-family="Manrope, Arial, sans-serif" font-size="38" font-weight="800" fill="#0B0B0B">mercado repartido</text>
      
  <rect x="116" y="862" width="1304" height="48" rx="24" fill="#F2F2EE" stroke="#1C2A3A" stroke-opacity="0.08" />
  <text x="150" y="894" font-family="Manrope, Arial, sans-serif" font-size="24" font-weight="800" fill="#2E2E2E">Apunte tipo pizarrón blanco: una idea, flechas y resultado destacado.</text>
</svg>
